<svg xmlns="http://www.w3.org/2000/svg" width="800" height="300"><rect width="800" height="300" x="0" y="0" fill="#FFFFFF" id="background"/><g transform="translate(50,50)" id="visualization"><g id="axis"><g transform="translate(0,200)" fill="none" font-size="10" font-family="sans-serif" text-anchor="middle"><path class="domain" stroke="currentColor" d="M0,6V0H700V6"/><g class="tick" opacity="1" transform="translate(0,0)"><line stroke="currentColor" y2="6"/><text fill="currentColor" y="9" dy="0.71em">1940</text></g><g class="tick" opacity="1" transform="translate(78,0)"><line stroke="currentColor" y2="6"/><text fill="currentColor" y="9" dy="0.71em">1950</text></g><g class="tick" opacity="1" transform="translate(156,0)"><line stroke="currentColor" y2="6"/><text fill="currentColor" y="9" dy="0.71em">1960</text></g><g class="tick" opacity="1" transform="translate(233,0)"><line stroke="currentColor" y2="6"/><text fill="currentColor" y="9" dy="0.71em">1970</text></g><g class="tick" opacity="1" transform="translate(311,0)"><line stroke="currentColor" y2="6"/><text fill="currentColor" y="9" dy="0.71em">1980</text></g><g class="tick" opacity="1" transform="translate(389,0)"><line stroke="currentColor" y2="6"/><text fill="currentColor" y="9" dy="0.71em">1990</text></g><g class="tick" opacity="1" transform="translate(467,0)"><line stroke="currentColor" y2="6"/><text fill="currentColor" y="9" dy="0.71em">2000</text></g><g class="tick" opacity="1" transform="translate(544,0)"><line stroke="currentColor" y2="6"/><text fill="currentColor" y="9" dy="0.71em">2010</text></g><g class="tick" opacity="1" transform="translate(622,0)"><line stroke="currentColor" y2="6"/><text fill="currentColor" y="9" dy="0.71em">2020</text></g><g class="tick" opacity="1" transform="translate(700,0)"><line stroke="currentColor" y2="6"/><text fill="currentColor" y="9" dy="0.71em">2030</text></g></g></g><g id="viz"><g id="Ended love" transform="translate(0,0)"><text x="43" y="10" text-anchor="end" dominant-baseline="middle" style="font-family: Arial, sans-serif; font-size: 10px; fill: black; font-weight: normal;">Ended love</text><rect x="47" y="0" width="1" height="20" fill="#ff7f0e"/><rect x="78" y="0" width="1" height="20" fill="#ff7f0e"/><rect x="171" y="0" width="1" height="20" fill="#ff7f0e"/><rect x="350" y="0" width="1" height="20" fill="#ff7f0e"/><rect x="404" y="0" width="1" height="20" fill="#ff7f0e"/><rect x="412" y="0" width="1" height="20" fill="#ff7f0e"/><rect x="420" y="0" width="1" height="20" fill="#ff7f0e"/><rect x="459" y="0" width="1" height="20" fill="#ff7f0e"/><rect x="506" y="0" width="1" height="20" fill="#ff7f0e"/><rect x="521" y="0" width="1" height="20" fill="#ff7f0e"/><rect x="552" y="0" width="1" height="20" fill="#ff7f0e"/><rect x="560" y="0" width="1" height="20" fill="#ff7f0e"/><rect x="591" y="0" width="1" height="20" fill="#ff7f0e"/><line x1="0" y1="0" x2="700" y2="0" style="stroke: rgb(204, 204, 204);"/></g><g id="Love" transform="translate(0,20)"><text x="50" y="10" text-anchor="end" dominant-baseline="middle" style="font-family: Arial, sans-serif; font-size: 10px; fill: black; font-weight: normal;">Love</text><rect x="54" y="0" width="1" height="20" fill="#8c564b"/><rect x="86" y="0" width="1" height="20" fill="#8c564b"/><rect x="93" y="0" width="1" height="20" fill="#8c564b"/><rect x="101" y="0" width="1" height="20" fill="#8c564b"/><rect x="109" y="0" width="1" height="20" fill="#8c564b"/><rect x="132" y="0" width="1" height="20" fill="#8c564b"/><rect x="179" y="0" width="1" height="20" fill="#8c564b"/><rect x="187" y="0" width="1" height="20" fill="#8c564b"/><rect x="210" y="0" width="1" height="20" fill="#8c564b"/><rect x="218" y="0" width="1" height="20" fill="#8c564b"/><rect x="226" y="0" width="1" height="20" fill="#8c564b"/><rect x="249" y="0" width="1" height="20" fill="#8c564b"/><rect x="264" y="0" width="1" height="20" fill="#8c564b"/><rect x="272" y="0" width="1" height="20" fill="#8c564b"/><rect x="280" y="0" width="1" height="20" fill="#8c564b"/><rect x="288" y="0" width="1" height="20" fill="#8c564b"/><rect x="296" y="0" width="1" height="20" fill="#8c564b"/><rect x="311" y="0" width="1" height="20" fill="#8c564b"/><rect x="319" y="0" width="1" height="20" fill="#8c564b"/><rect x="334" y="0" width="1" height="20" fill="#8c564b"/><rect x="342" y="0" width="1" height="20" fill="#8c564b"/><rect x="373" y="0" width="1" height="20" fill="#8c564b"/><rect x="381" y="0" width="1" height="20" fill="#8c564b"/><rect x="397" y="0" width="1" height="20" fill="#8c564b"/><rect x="443" y="0" width="1" height="20" fill="#8c564b"/><rect x="467" y="0" width="1" height="20" fill="#8c564b"/><rect x="474" y="0" width="1" height="20" fill="#8c564b"/><rect x="482" y="0" width="1" height="20" fill="#8c564b"/><rect x="599" y="0" width="1" height="20" fill="#8c564b"/><rect x="622" y="0" width="1" height="20" fill="#8c564b"/><rect x="630" y="0" width="1" height="20" fill="#8c564b"/><line x1="0" y1="0" x2="700" y2="0" style="stroke: rgb(204, 204, 204);"/></g><g id="Life" transform="translate(0,40)"><text x="66" y="10" text-anchor="end" dominant-baseline="middle" style="font-family: Arial, sans-serif; font-size: 10px; fill: black; font-weight: normal;">Life</text><rect x="70" y="0" width="1" height="20" fill="#9467bd"/><rect x="124" y="0" width="1" height="20" fill="#9467bd"/><rect x="202" y="0" width="1" height="20" fill="#9467bd"/><rect x="428" y="0" width="1" height="20" fill="#9467bd"/><rect x="513" y="0" width="1" height="20" fill="#9467bd"/><rect x="568" y="0" width="1" height="20" fill="#9467bd"/><rect x="607" y="0" width="1" height="20" fill="#9467bd"/><line x1="0" y1="0" x2="700" y2="0" style="stroke: rgb(204, 204, 204);"/></g><g id="War" transform="translate(0,60)"><text x="144" y="10" text-anchor="end" dominant-baseline="middle" style="font-family: Arial, sans-serif; font-size: 10px; fill: black; font-weight: normal;">War</text><rect x="148" y="0" width="1" height="20" fill="#17becf"/><rect x="202" y="0" width="1" height="20" fill="#17becf"/><line x1="0" y1="0" x2="700" y2="0" style="stroke: rgb(204, 204, 204);"/></g><g id="Party" transform="translate(0,80)"><text x="159" y="10" text-anchor="end" dominant-baseline="middle" style="font-family: Arial, sans-serif; font-size: 10px; fill: black; font-weight: normal;">Party</text><rect x="163" y="0" width="1" height="20" fill="#7f7f7f"/><rect x="179" y="0" width="1" height="20" fill="#7f7f7f"/><rect x="194" y="0" width="1" height="20" fill="#7f7f7f"/><rect x="366" y="0" width="1" height="20" fill="#7f7f7f"/><rect x="436" y="0" width="1" height="20" fill="#7f7f7f"/><rect x="490" y="0" width="1" height="20" fill="#7f7f7f"/><rect x="498" y="0" width="1" height="20" fill="#7f7f7f"/><rect x="537" y="0" width="1" height="20" fill="#7f7f7f"/><rect x="544" y="0" width="1" height="20" fill="#7f7f7f"/><rect x="583" y="0" width="1" height="20" fill="#7f7f7f"/><line x1="0" y1="0" x2="700" y2="0" style="stroke: rgb(204, 204, 204);"/></g><g id="Comfort" transform="translate(0,100)"><text x="229" y="10" text-anchor="end" dominant-baseline="middle" style="font-family: Arial, sans-serif; font-size: 10px; fill: black; font-weight: normal;">Comfort</text><rect x="233" y="0" width="1" height="20" fill="#1f77b4"/><rect x="389" y="0" width="1" height="20" fill="#1f77b4"/><line x1="0" y1="0" x2="700" y2="0" style="stroke: rgb(204, 204, 204);"/></g><g id="Happiness" transform="translate(0,120)"><text x="237" y="10" text-anchor="end" dominant-baseline="middle" style="font-family: Arial, sans-serif; font-size: 10px; fill: black; font-weight: normal;">Happiness</text><rect x="241" y="0" width="1" height="20" fill="#d62728"/><rect x="614" y="0" width="1" height="20" fill="#d62728"/><line x1="0" y1="0" x2="700" y2="0" style="stroke: rgb(204, 204, 204);"/></g><g id="Nostalgia" transform="translate(0,140)"><text x="253" y="10" text-anchor="end" dominant-baseline="middle" style="font-family: Arial, sans-serif; font-size: 10px; fill: black; font-weight: normal;">Nostalgia</text><rect x="257" y="0" width="1" height="20" fill="#e377c2"/><line x1="0" y1="0" x2="700" y2="0" style="stroke: rgb(204, 204, 204);"/></g><g id="Sexual love" transform="translate(0,160)"><text x="299" y="10" text-anchor="end" dominant-baseline="middle" style="font-family: Arial, sans-serif; font-size: 10px; fill: black; font-weight: normal;">Sexual love</text><rect x="303" y="0" width="1" height="20" fill="#bcbd22"/><rect x="327" y="0" width="1" height="20" fill="#bcbd22"/><rect x="451" y="0" width="1" height="20" fill="#bcbd22"/><rect x="529" y="0" width="1" height="20" fill="#bcbd22"/><line x1="0" y1="0" x2="700" y2="0" style="stroke: rgb(204, 204, 204);"/></g><g id="Friend" transform="translate(0,180)"><text x="354" y="10" text-anchor="end" dominant-baseline="middle" style="font-family: Arial, sans-serif; font-size: 10px; fill: black; font-weight: normal;">Friend</text><rect x="358" y="0" width="1" height="20" fill="#2ca02c"/><rect x="443" y="0" width="1" height="20" fill="#2ca02c"/><line x1="0" y1="0" x2="700" y2="0" style="stroke: rgb(204, 204, 204);"/></g></g></g></svg>